<svg width="1320" height="339" xmlns="http://www.w3.org/2000/svg" xmlns:xlink="http://www.w3.org/1999/xlink" xml:space="preserve" overflow="hidden"><defs><linearGradient x1="1542.2" y1="1622.84" x2="1542.2" y2="1292.84" gradientUnits="userSpaceOnUse" spreadMethod="reflect" id="fill0"><stop offset="0" stop-color="#02529F" stop-opacity="1"/><stop offset="0.5" stop-color="#0978E5" stop-opacity="1"/><stop offset="1" stop-color="#0D90FF" stop-opacity="1"/></linearGradient><linearGradient x1="1542.2" y1="1622.84" x2="1542.2" y2="1292.84" gradientUnits="userSpaceOnUse" spreadMethod="reflect" id="fill1"><stop offset="0" stop-color="#414141" stop-opacity="1"/><stop offset="0.5" stop-color="#606060" stop-opacity="1"/><stop offset="1" stop-color="#747474" stop-opacity="1"/></linearGradient><linearGradient x1="2120.67" y1="1418.08" x2="2120.67" y2="1319.08" gradientUnits="userSpaceOnUse" spreadMethod="reflect" id="fill2"><stop offset="0" stop-color="#CC2F00" stop-opacity="1"/><stop offset="0.21" stop-color="#D93700" stop-opacity="1"/><stop offset="0.86" stop-color="#FF4300" stop-opacity="1"/><stop offset="1" stop-color="#FF4300" stop-opacity="1"/></linearGradient></defs><g transform="translate(-880 -1301)"><g><path d="M1137.35 1437.33C1129.29 1437.33 1123.05 1439.8 1118.65 1444.75 1114.25 1449.7 1112.05 1456.76 1112.05 1465.93L1112.05 1495.35C1112.05 1504.52 1114.25 1511.58 1118.65 1516.53 1123.05 1521.48 1129.29 1523.95 1137.35 1523.95 1145.42 1523.95 1151.65 1521.48 1156.05 1516.53 1160.45 1511.58 1162.65 1504.52 1162.65 1495.35L1162.65 1465.93C1162.65 1456.76 1160.45 1449.7 1156.05 1444.75 1151.65 1439.8 1145.42 1437.33 1137.35 1437.33ZM1316.54 1405.15C1331.39 1405.15 1342.62 1410.1 1350.23 1420 1357.84 1429.9 1361.64 1444.02 1361.64 1462.35L1361.64 1552.83 1320.94 1552.83 1320.94 1465.65C1320.94 1456.3 1319.47 1449.38 1316.54 1444.89 1313.61 1440.4 1308.38 1438.15 1300.86 1438.15 1297.56 1438.15 1294.36 1438.56 1291.24 1439.39 1288.12 1440.21 1285.33 1441.54 1282.85 1443.38 1280.38 1445.21 1278.41 1447.46 1276.94 1450.11 1275.47 1452.77 1274.74 1455.84 1274.74 1459.33L1274.74 1552.83 1234.04 1552.83 1234.04 1408.45 1274.74 1408.45 1274.74 1432.93 1276.39 1432.93C1278.96 1425.41 1283.45 1418.9 1289.86 1413.4 1296.28 1407.9 1305.17 1405.15 1316.54 1405.15ZM1137.35 1405.15C1147.99 1405.15 1157.47 1406.89 1165.82 1410.38 1174.16 1413.86 1181.22 1418.86 1186.99 1425.36 1192.77 1431.87 1197.21 1439.8 1200.33 1449.15 1203.45 1458.5 1205 1468.95 1205 1480.5 1205 1492.05 1203.45 1502.5 1200.33 1511.85 1197.21 1521.2 1192.77 1529.18 1186.99 1535.78 1181.22 1542.38 1174.16 1547.42 1165.82 1550.9 1157.47 1554.39 1147.99 1556.13 1137.35 1556.13 1126.72 1556.13 1117.23 1554.39 1108.89 1550.9 1100.55 1547.42 1093.49 1542.38 1087.72 1535.78 1081.94 1529.18 1077.5 1521.2 1074.38 1511.85 1071.26 1502.5 1069.7 1492.05 1069.7 1480.5 1069.7 1468.95 1071.26 1458.5 1074.38 1449.15 1077.5 1439.8 1081.94 1431.87 1087.72 1425.36 1093.49 1418.86 1100.55 1413.86 1108.89 1410.38 1117.23 1406.89 1126.72 1405.15 1137.35 1405.15ZM954.96 1360.88 1046.26 1360.88 1046.26 1394.15 1021.51 1394.15 1021.51 1519.55 1046.26 1519.55 1046.26 1552.83 954.96 1552.83 954.96 1519.55 979.71 1519.55 979.71 1394.15 954.96 1394.15Z" fill="url(#fill0)" fill-rule="evenodd"/><text fill="#000000" fill-opacity="0" font-family="Arial,Arial_MSFontService,sans-serif" font-size="195.25" direction="ltr" writing-mode="lr-tb" x="954.96" y="1531.72">Ion</text><path d="M1902.34 1492.33C1886.39 1492.33 1878.41 1497.69 1878.41 1508.43L1878.41 1512.52C1878.41 1517.8 1880.06 1521.66 1883.36 1524.12 1886.66 1526.57 1891.34 1527.8 1897.39 1527.8 1904.17 1527.8 1909.99 1526.35 1914.85 1523.44 1919.71 1520.53 1922.14 1515.8 1922.14 1509.24L1922.14 1492.33ZM1441.89 1473.63 1441.89 1517.63 1490.02 1517.63C1495.52 1517.63 1499.87 1516.11 1503.08 1513.09 1506.29 1510.06 1507.89 1505.8 1507.89 1500.3L1507.89 1490.95C1507.89 1485.45 1506.29 1481.19 1503.08 1478.16 1499.87 1475.14 1495.52 1473.63 1490.02 1473.63ZM1751.77 1435.13C1743.52 1435.13 1737.06 1437.83 1732.39 1443.24 1727.71 1448.65 1725.37 1455.84 1725.37 1464.83L1725.37 1467.03 1775.97 1467.03 1775.97 1464.55C1775.97 1455.75 1774 1448.65 1770.06 1443.24 1766.12 1437.83 1760.02 1435.13 1751.77 1435.13ZM1581.23 1408.45 1621.93 1408.45 1621.93 1439.8 1623.3 1439.8C1624.04 1435.77 1625.32 1431.87 1627.15 1428.11 1628.99 1424.36 1631.41 1421.01 1634.44 1418.08 1637.46 1415.14 1641.09 1412.81 1645.3 1411.06 1649.52 1409.32 1654.47 1408.45 1660.15 1408.45L1667.3 1408.45 1667.3 1446.4 1657.13 1446.4C1645.21 1446.4 1636.36 1447.96 1630.59 1451.08 1624.81 1454.19 1621.93 1459.97 1621.93 1468.4L1621.93 1552.83 1581.23 1552.83ZM1901.24 1405.15C1921.77 1405.15 1937.17 1409.64 1947.44 1418.63 1957.7 1427.61 1962.84 1440.72 1962.84 1457.95L1962.84 1521.2 1976.31 1521.2 1976.31 1552.83 1953.76 1552.83C1946.43 1552.83 1940.33 1550.54 1935.47 1545.95 1930.61 1541.37 1927.54 1535.23 1926.26 1527.53L1924.61 1527.53C1922.41 1536.88 1917.55 1543.98 1910.04 1548.84 1902.52 1553.7 1893.26 1556.13 1882.26 1556.13 1867.78 1556.13 1856.69 1552.29 1848.99 1544.61 1841.29 1536.94 1837.44 1526.8 1837.44 1514.19 1837.44 1499.02 1842.98 1487.73 1854.07 1480.33 1865.16 1472.93 1880.24 1469.23 1899.31 1469.23L1922.14 1469.23 1922.14 1460.15C1922.14 1453.19 1920.3 1447.64 1916.64 1443.51 1912.97 1439.39 1906.83 1437.33 1898.21 1437.33 1890.14 1437.33 1883.73 1439.07 1878.96 1442.55 1874.19 1446.04 1870.25 1449.98 1867.14 1454.38L1842.94 1432.81C1848.8 1424.14 1856.18 1417.37 1865.07 1412.48 1873.96 1407.6 1886.02 1405.15 1901.24 1405.15ZM1750.95 1405.15C1762.86 1405.15 1773.09 1407.17 1781.61 1411.2 1790.14 1415.24 1797.1 1420.64 1802.51 1427.43 1807.92 1434.21 1811.86 1442.05 1814.34 1450.94 1816.81 1459.83 1818.05 1469.14 1818.05 1478.85L1818.05 1490.95 1725.37 1490.95 1725.37 1493.14C1725.37 1502.59 1727.94 1510.09 1733.07 1515.63 1738.21 1521.18 1746.27 1523.95 1757.27 1523.95 1765.71 1523.95 1772.58 1522.27 1777.9 1518.91 1783.21 1515.54 1788.16 1511.5 1792.75 1506.77L1813.1 1532.14C1806.68 1539.67 1798.29 1545.56 1787.94 1549.79 1777.58 1554.01 1765.8 1556.13 1752.6 1556.13 1741.6 1556.13 1731.79 1554.34 1723.17 1550.76 1714.56 1547.19 1707.27 1542.15 1701.31 1535.64 1695.35 1529.13 1690.86 1521.2 1687.84 1511.85 1684.81 1502.5 1683.3 1492.05 1683.3 1480.5 1683.3 1469.14 1684.76 1458.82 1687.7 1449.56 1690.63 1440.31 1694.99 1432.38 1700.76 1425.78 1706.54 1419.18 1713.64 1414.09 1722.07 1410.51 1730.51 1406.94 1740.13 1405.15 1750.95 1405.15ZM1441.89 1396.08 1441.89 1439.53 1483.42 1439.53C1488.92 1439.53 1493.23 1437.97 1496.34 1434.85 1499.46 1431.74 1501.02 1427.43 1501.02 1421.93L1501.02 1413.68C1501.02 1408.18 1499.46 1403.87 1496.34 1400.75 1493.23 1397.64 1488.92 1396.08 1483.42 1396.08ZM1400.09 1360.88 1493.32 1360.88C1509.27 1360.88 1521.69 1365.37 1530.58 1374.35 1539.47 1383.34 1543.92 1395.25 1543.92 1410.1 1543.92 1417.44 1542.96 1423.67 1541.03 1428.8 1539.11 1433.94 1536.54 1438.15 1533.33 1441.45 1530.12 1444.75 1526.36 1447.18 1522.06 1448.74 1517.75 1450.3 1513.12 1451.17 1508.17 1451.35L1508.17 1453C1512.75 1453 1517.56 1453.83 1522.61 1455.48 1527.65 1457.13 1532.28 1459.74 1536.49 1463.31 1540.71 1466.89 1544.24 1471.52 1547.08 1477.2 1549.92 1482.89 1551.34 1489.85 1551.34 1498.1 1551.34 1505.62 1550.11 1512.72 1547.63 1519.41 1545.16 1526.11 1541.72 1531.93 1537.32 1536.88 1532.92 1541.83 1527.69 1545.72 1521.64 1548.56 1515.59 1551.41 1508.99 1552.83 1501.84 1552.83L1400.09 1552.83ZM2003.47 1349.33 2044.17 1349.33 2044.17 1469.5 2045.82 1469.5 2063.69 1442.83 2092.57 1408.45 2137.67 1408.45 2089.54 1463.73 2143.17 1552.83 2094.77 1552.83 2062.32 1491.78 2044.17 1512.13 2044.17 1552.83 2003.47 1552.83Z" fill="url(#fill1)" fill-rule="evenodd"/><text fill="#000000" fill-opacity="0" font-family="Arial,Arial_MSFontService,sans-serif" font-size="206.8" direction="ltr" writing-mode="lr-tb" x="1400.09" y="1530.28">Break</text><path d="M2099.28 1387.46 2137.7 1387.46 2135.8 1397.09 2097.37 1397.09ZM2121.77 1344.47 2132.14 1344.47 2129.4 1358.33 2143.43 1358.33 2141.52 1367.96 2127.5 1367.96 2124.76 1381.82 2114.38 1381.82 2117.12 1367.96 2103.09 1367.96 2105 1358.33 2119.03 1358.33Z" fill="url(#fill2)" fill-rule="evenodd"/><text fill="#000000" fill-opacity="0" font-family="Arial,Arial_MSFontService,sans-serif" font-size="52.6219" direction="ltr" writing-mode="lr-tb" x="2097.37" y="1390.51">±</text></g></g></svg>